{"title":"We live together xXx Celeste Star Hayden Winters Shyla Jennings@","uid":6086014,"size":440954394,"categoryP":"porn","categoryS":"movie_clips","magnet":"?xt=urn:btih:4521f8041b94aecfdc1f8266bb26b619eaa1d080&amp;dn=We+live+together+xXx+Celeste+Star+Hayden+Winters+Shyla+Jennings%40&amp;tr=udp%3A%2F%2Ftracker.openbittorrent.com%3A80&amp;tr=udp%3A%2F%2Fopen.demonii.com%3A1337&amp;tr=udp%3A%2F%2Ftracker.coppersurfer.tk%3A6969&amp;tr=udp%3A%2F%2Fexodus.desync.com%3A6969","seeders":1,"leechers":6,"uploader":"amanrulz","files":1,"time":1294329583,"description":"We live together -&gt; Celeste Star Hayden Winters Shyla Jennings - Wet ones\n\n\nCast\nCeleste Star Hayden Winters Shyla Jennings\n\nThu January 06, 2011\nCeleste wanted to spend the day at the pier with Hayden and Shyla a but the horrible weather prevented them from enjoying the scenery. The rain was relentless, clear skies were no where in sight, so Celeste invited the girls back to her place. Since they were already wet, Hayden suggested that they take a shower together. They all agreed and immediately undressed each other. The girls caressed and kissed each other under the warm water before starting the pussy licking action.\n\nGeneral\nComplete name : We live together - Celeste Star Hayden Winters Shyla Jennings - Wet ones.wmv\nFormat : Windows Media\nFile size : 421 MiB\nDuration : 36mn 58s\nOverall bit rate : 1 590 Kbps\nMaximum Overall bit rate : 1 569 Kbps\nEncoded date : UTC 2011-01-03 23:35:06.000\n\nVideo\nID : 1\nFormat : VC-1\nFormat profile : MP\nCodec ID : WMV3\nCodec ID/Info : Windows Media Video 9\nCodec ID/Hint : WMV3\nDescription of the codec : Windows Media Video 9 - 2-pass VBR\nDuration : 36mn 58s\nBit rate : 1 500 Kbps\nWidth : 768 pixels\nHeight : 432 pixels\nDisplay aspect ratio : 16:9\nFrame rate : 29.970 fps\nBit depth : 8 bits\nScan type : Progressive\nCompression mode : Lossy\nBits/(Pixel*Frame) : 0.151\nStream size : 397 MiB (94%)\n\nAudio\nID : 2\nFormat : WMA\nFormat version : Version 2\nCodec ID : 161\nCodec ID/Info : Windows Media Audio\nDescription of the codec : Windows Media Audio 9 - 48 kbps, 44 kHz, mono CBR\nDuration : 36mn 58s\nBit rate : 48.0 Kbps\nChannel(s) : 1 channel\nSampling rate : 44.1 KHz\nBit depth : 16 bits\nStream size : 12.7 MiB (3%) ","torrent":{"xt":"urn:btih:4521f8041b94aecfdc1f8266bb26b619eaa1d080","amp;dn":"We+live+together+xXx+Celeste+Star+Hayden+Winters+Shyla+Jennings%40","amp;tr":["udp%3A%2F%2Ftracker.openbittorrent.com%3A80","udp%3A%2F%2Fopen.demonii.com%3A1337","udp%3A%2F%2Ftracker.coppersurfer.tk%3A6969","udp%3A%2F%2Fexodus.desync.com%3A6969"],"infoHash":"4521f8041b94aecfdc1f8266bb26b619eaa1d080","infoHashBuffer":{"type":"Buffer","data":[69,33,248,4,27,148,174,207,220,31,130,102,187,38,182,25,234,161,208,128]},"announce":[],"urlList":[]}}